<?xml version="1.0" encoding="UTF-8"?>
<svg id="_圖層_2" data-name="圖層 2" xmlns="http://www.w3.org/2000/svg" xmlns:xlink="http://www.w3.org/1999/xlink" viewBox="0 0 338.24 165.18">
  <defs>
    <style>
      .cls-1 {
        clip-path: url(#clippath);
      }

      .cls-2 {
        fill: none;
      }

      .cls-2, .cls-3, .cls-4, .cls-5, .cls-6 {
        stroke-width: 0px;
      }

      .cls-7 {
        clip-path: url(#clippath-1);
      }

      .cls-8 {
        opacity: .46;
      }

      .cls-9 {
        opacity: .36;
      }

      .cls-10 {
        opacity: .35;
      }

      .cls-3 {
        fill: #d8e027;
      }

      .cls-4 {
        fill: #323038;
      }

      .cls-5 {
        fill: #fff;
      }

      .cls-6 {
        fill: #e7e7e7;
      }
    </style>
    <clipPath id="clippath">
      <path class="cls-2" d="M68.9,11.31h172.55c30.42,0,55.11,24.7,55.11,55.11v32.34c0,30.42-24.69,55.11-55.11,55.11H68.9c-30.42,0-55.11-24.69-55.11-55.11v-32.34c0-30.42,24.69-55.11,55.11-55.11Z"/>
    </clipPath>
    <clipPath id="clippath-1">
      <rect class="cls-2" width="310.34" height="165.18" rx="49.78" ry="49.78"/>
    </clipPath>
  </defs>
  <g id="Capa_1" data-name="Capa 1">
    <g id="Icons">
      <g id="_19" data-name="19">
        <rect class="cls-4" x="277.64" y="36.1" width="60.59" height="92.98" rx="30.3" ry="30.3"/>
        <rect class="cls-6" width="310.34" height="165.18" rx="47.55" ry="47.55"/>
        <g class="cls-1">
          <rect class="cls-3" x="11.59" y="-6.4" width="74.71" height="173.06"/>
          <rect class="cls-3" x="13.51" y="-5.75" width="74.71" height="173.06"/>
          <rect class="cls-3" x="221.91" y="-6.4" width="74.07" height="173.06"/>
          <rect class="cls-3" x="114.29" y="-6.4" width="83.49" height="173.06"/>
        </g>
        <g class="cls-7">
          <g class="cls-10">
            <circle class="cls-5" cx="26.93" cy="29.95" r="114.46" transform="translate(-13.29 27.82) rotate(-45)"/>
          </g>
        </g>
        <g>
          <g class="cls-8">
            <path class="cls-5" d="M74.49,23.61c-2.18,0-4.03-1.67-4.22-3.89-.19-2.33,1.54-4.38,3.88-4.57,1.62-.13,3.26-.2,4.91-.2,2.34,0,4.24,1.9,4.24,4.24s-1.89,4.23-4.24,4.23c-1.42,0-2.83.06-4.22.17-.12,0-.24.01-.35.01Z"/>
          </g>
          <g class="cls-8">
            <path class="cls-5" d="M24.23,78.26c-2.34,0-4.24-1.9-4.24-4.23,0-23.02,13.52-44.11,34.46-53.71,2.12-.98,4.64-.05,5.62,2.08.98,2.13.04,4.64-2.08,5.61-17.93,8.23-29.52,26.29-29.52,46.02,0,2.34-1.89,4.23-4.23,4.23Z"/>
          </g>
        </g>
        <g class="cls-9">
          <path class="cls-5" d="M280.59,110.21c3.03.1,5.41,2.64,5.31,5.67-.51,15.23-13.31,27.21-28.54,26.7-3.03-.1-5.41-2.64-5.31-5.67.1-3.03,2.64-5.41,5.67-5.31,9.17.31,16.89-6.91,17.19-16.08.1-3.03,2.64-5.41,5.67-5.31Z"/>
        </g>
      </g>
    </g>
  </g>
</svg>