<?xml version="1.0" encoding="UTF-8"?>
<svg id="_圖層_2" data-name="圖層 2" xmlns="http://www.w3.org/2000/svg" xmlns:xlink="http://www.w3.org/1999/xlink" viewBox="0 0 311 276.23">
  <defs>
    <style>
      .cls-1 {
        clip-path: url(#clippath);
      }

      .cls-2 {
        clip-path: url(#clippath-1);
      }

      .cls-3 {
        clip-rule: evenodd;
        fill: none;
      }

      .cls-3, .cls-4, .cls-5, .cls-6 {
        stroke-width: 0px;
      }

      .cls-7 {
        opacity: .18;
      }

      .cls-8 {
        opacity: .31;
      }

      .cls-9 {
        opacity: .46;
      }

      .cls-4 {
        fill: #1f75bc;
      }

      .cls-4, .cls-5 {
        fill-rule: evenodd;
      }

      .cls-5 {
        fill: #28aae1;
      }

      .cls-6 {
        fill: #fff;
      }
    </style>
    <clipPath id="clippath">
      <path class="cls-3" d="M198.57,250.28c7.09,0,22.37-1.18,29.09-2.28l48.75,28.23v-49.05c22.6-19.24,34.59-45.96,34.59-77.44,0-54.33-50.25-98.38-112.43-98.38-51.69,0-103.78,44.05-103.78,98.38s41.69,100.54,103.78,100.54Z"/>
    </clipPath>
    <clipPath id="clippath-1">
      <path class="cls-3" d="M125.75,222.48c-7.93,0-25.02-1.32-32.53-2.55l-54.52,31.57v-54.85C13.42,175.12,0,145.23,0,110.03,0,49.26,56.2,0,125.75,0c57.82,0,116.07,49.26,116.07,110.03s-46.63,112.45-116.07,112.45Z"/>
    </clipPath>
  </defs>
  <g id="Capa_1" data-name="Capa 1">
    <g id="Icons">
      <g id="_18" data-name="18">
        <g>
          <path class="cls-4" d="M198.57,250.28c7.09,0,22.37-1.18,29.09-2.28l48.75,28.23v-49.05c22.6-19.24,34.59-45.96,34.59-77.44,0-54.33-50.25-98.38-112.43-98.38-51.69,0-103.78,44.05-103.78,98.38s41.69,100.54,103.78,100.54Z"/>
          <path class="cls-6" d="M241.81,150.82c0,7.17,5.81,12.97,12.97,12.97s12.97-5.81,12.97-12.97-5.81-12.97-12.97-12.97-12.97,5.81-12.97,12.97Z"/>
          <path class="cls-6" d="M190.13,150.82c0,7.17,5.81,12.97,12.97,12.97s12.97-5.81,12.97-12.97-5.81-12.97-12.97-12.97-12.97,5.81-12.97,12.97Z"/>
          <path class="cls-6" d="M138.46,150.82c0,7.17,5.81,12.97,12.97,12.97s12.97-5.81,12.97-12.97-5.81-12.97-12.97-12.97-12.97,5.81-12.97,12.97Z"/>
          <g class="cls-1">
            <g class="cls-7">
              <circle class="cls-6" cx="261.67" cy="96.3" r="103.35"/>
            </g>
          </g>
        </g>
        <g>
          <path class="cls-5" d="M125.75,222.48c-7.93,0-25.02-1.32-32.53-2.55l-54.52,31.57v-54.85C13.42,175.12,0,145.23,0,110.03,0,49.26,56.2,0,125.75,0c57.82,0,116.07,49.26,116.07,110.03s-46.63,112.45-116.07,112.45Z"/>
          <path class="cls-6" d="M77.38,111.24c0,8.01-6.5,14.51-14.51,14.51s-14.51-6.5-14.51-14.51,6.5-14.51,14.51-14.51,14.51,6.5,14.51,14.51Z"/>
          <path class="cls-6" d="M135.18,111.24c0,8.01-6.5,14.51-14.51,14.51s-14.51-6.5-14.51-14.51,6.5-14.51,14.51-14.51,14.51,6.5,14.51,14.51Z"/>
          <path class="cls-6" d="M192.98,111.24c0,8.01-6.5,14.51-14.51,14.51s-14.51-6.5-14.51-14.51,6.5-14.51,14.51-14.51,14.51,6.5,14.51,14.51Z"/>
          <g class="cls-2">
            <g class="cls-7">
              <circle class="cls-6" cx="91.39" cy="34.55" r="115.59"/>
            </g>
            <g class="cls-8">
              <path class="cls-4" d="M35.9,262.59l26.97-64.12s11.62-31.5,58.04-21.36c50.51,11.03,151.67-27.8,95.17-158.41l51.68,17.34v240.19s-200.57,25.66-231.85-13.64Z"/>
            </g>
          </g>
        </g>
        <g>
          <g class="cls-9">
            <path class="cls-6" d="M88.96,36.76c-3.09,0-5.7-2.37-5.96-5.49-.27-3.29,2.18-6.18,5.48-6.46,2.29-.19,4.61-.28,6.94-.28,3.31,0,5.98,2.68,5.98,5.99s-2.68,5.98-5.98,5.98c-2,0-4,.08-5.96.24-.16.01-.33.02-.5.02Z"/>
          </g>
          <g class="cls-9">
            <path class="cls-6" d="M17.93,113.99c-3.31,0-5.99-2.68-5.99-5.99,0-32.53,19.11-62.33,48.69-75.91,2.99-1.38,6.55-.06,7.94,2.94,1.38,3,.06,6.55-2.95,7.93-25.34,11.63-41.71,37.16-41.71,65.03,0,3.31-2.68,5.99-5.98,5.99Z"/>
          </g>
        </g>
        <g class="cls-9">
          <path class="cls-6" d="M292.24,179.17c3.15.79,6.35-1.17,7.16-4.37,7.94-31.55-2.99-65.03-27.84-85.28-2.51-2.05-6.22-1.63-8.27.95-2.05,2.58-1.66,6.34.87,8.4,21.28,17.35,30.65,46.03,23.85,73.06-.81,3.21,1.09,6.45,4.24,7.24Z"/>
        </g>
      </g>
    </g>
  </g>
</svg>