<?xml version="1.0" encoding="UTF-8"?>
<svg id="_圖層_2" data-name="圖層 2" xmlns="http://www.w3.org/2000/svg" viewBox="0 0 48 48">
  <defs>
    <style>
      .cls-1 {
        fill: #c51e60;
        fill-rule: evenodd;
      }

      .cls-1, .cls-2 {
        stroke-width: 0px;
      }

      .cls-2 {
        fill: #ec4989;
      }
    </style>
  </defs>
  <g id="layer">
    <g id="Dribble">
      <circle id="ballbk" class="cls-2" cx="24" cy="24" r="22"/>
      <path id="line" class="cls-1" d="M24,48C10.77,48,0,37.23,0,24S10.77,0,24,0s24,10.77,24,24-10.77,24-24,24ZM44.24,27.29c-.7-.22-6.35-1.9-12.77-.88,2.68,7.37,3.77,13.37,3.98,14.62,4.6-3.11,7.87-8.04,8.79-13.74ZM32.01,42.9c-.3-1.8-1.5-8.07-4.37-15.55-.05.02-.09.03-.14.05-11.56,4.03-15.71,12.05-16.08,12.8,3.48,2.71,7.84,4.33,12.58,4.33,2.84,0,5.55-.58,8.01-1.63ZM8.77,37.74c.46-.79,6.09-10.11,16.66-13.53.27-.09.54-.17.81-.24-.51-1.16-1.08-2.33-1.66-3.48-10.24,3.06-20.17,2.94-21.07,2.92,0,.21-.01.42-.01.63,0,5.27,2,10.07,5.27,13.71ZM3.93,19.83c.92.01,9.36.05,18.95-2.5-3.4-6.04-7.06-11.11-7.6-11.86-5.74,2.71-10.02,7.99-11.35,14.35ZM19.2,4.1c.57.76,4.29,5.83,7.65,12,7.29-2.73,10.38-6.88,10.74-7.41-3.62-3.21-8.38-5.17-13.59-5.17-1.65,0-3.26.2-4.8.57ZM39.87,11.07c-.43.58-3.87,4.99-11.45,8.08.48.98.93,1.97,1.36,2.97.15.35.3.71.44,1.06,6.82-.86,13.6.52,14.27.66-.05-4.84-1.77-9.28-4.63-12.77Z"/>
    </g>
  </g>
</svg>