<?xml version="1.0" encoding="UTF-8"?>
<svg id="_圖層_2" data-name="圖層 2" xmlns="http://www.w3.org/2000/svg" xmlns:xlink="http://www.w3.org/1999/xlink" viewBox="0 0 262.16 315.26">
  <defs>
    <style>
      .cls-1 {
        clip-path: url(#clippath);
      }

      .cls-2 {
        fill: none;
      }

      .cls-2, .cls-3, .cls-4 {
        stroke-width: 0px;
      }

      .cls-5 {
        opacity: .05;
      }

      .cls-6 {
        clip-path: url(#clippath-1);
      }

      .cls-7 {
        opacity: .37;
      }

      .cls-3 {
        fill: #323038;
      }

      .cls-4 {
        fill: #fff;
      }
    </style>
    <clipPath id="clippath">
      <path class="cls-2" d="M209.68,268.08c-28.91,0-52.42-23.52-52.42-52.42s23.51-52.42,52.42-52.42,52.42,23.52,52.42,52.42-23.51,52.42-52.42,52.42Z"/>
    </clipPath>
    <clipPath id="clippath-1">
      <path class="cls-2" d="M52.42,315.26c-28.9,0-52.42-23.52-52.42-52.42s23.51-52.42,52.42-52.42,52.42,23.52,52.42,52.42-23.51,52.42-52.42,52.42Z"/>
    </clipPath>
  </defs>
  <g id="Capa_1" data-name="Capa 1">
    <g id="Icons">
      <g id="_28" data-name="28">
        <path class="cls-3" d="M94.42,273.95c-5.79,0-10.48-4.69-10.48-10.48V62.9c0-4.51,2.89-8.52,7.17-9.95L248.36.53c3.2-1.05,6.71-.53,9.44,1.44,2.73,1.97,4.35,5.13,4.35,8.5v205.81c0,5.79-4.69,10.48-10.48,10.48s-10.48-4.69-10.48-10.48V25.02l-136.29,45.43v193.01c0,5.79-4.69,10.48-10.48,10.48Z"/>
        <path class="cls-3" d="M94.35,120.56c-2.2,0-4.24-1.39-4.97-3.58-.92-2.75.57-5.72,3.31-6.63l157.26-52.42c2.75-.93,5.72.57,6.63,3.31.92,2.75-.57,5.72-3.31,6.63l-157.26,52.42c-.55.18-1.11.27-1.66.27Z"/>
        <polygon class="cls-3" points="97.82 64.87 97.82 115.6 253.22 60.41 250.99 19.15 97.82 64.87"/>
        <path class="cls-3" d="M52.42,315.26c-28.9,0-52.42-23.52-52.42-52.42s23.51-52.42,52.42-52.42,52.42,23.52,52.42,52.42-23.51,52.42-52.42,52.42Z"/>
        <g class="cls-7">
          <path class="cls-4" d="M14.42,264.51c-4.2,0-7.6-3.4-7.6-7.6,0-21.08,17.15-38.23,38.23-38.23,4.2,0,7.6,3.4,7.6,7.6s-3.4,7.6-7.6,7.6c-12.7,0-23.03,10.33-23.03,23.03,0,4.2-3.4,7.6-7.6,7.6Z"/>
        </g>
        <path class="cls-3" d="M209.68,268.08c-28.91,0-52.42-23.52-52.42-52.42s23.51-52.42,52.42-52.42,52.42,23.52,52.42,52.42-23.51,52.42-52.42,52.42Z"/>
        <g class="cls-1">
          <g class="cls-5">
            <path class="cls-4" d="M227.13,205.1c0,29.87-24.21,54.08-54.08,54.08s-54.08-24.21-54.08-54.08,24.21-54.08,54.08-54.08,54.08,24.21,54.08,54.08Z"/>
          </g>
        </g>
        <g class="cls-6">
          <g class="cls-5">
            <path class="cls-4" d="M73.15,249.96c0,29.87-24.21,54.08-54.08,54.08s-54.08-24.21-54.08-54.08,24.21-54.08,54.08-54.08,54.08,24.21,54.08,54.08Z"/>
          </g>
        </g>
      </g>
    </g>
  </g>
</svg>