<?xml version="1.0" encoding="UTF-8"?>
<svg id="_圖層_2" data-name="圖層 2" xmlns="http://www.w3.org/2000/svg" xmlns:xlink="http://www.w3.org/1999/xlink" viewBox="0 0 312.08 285.14">
  <defs>
    <style>
      .cls-1 {
        clip-path: url(#clippath);
      }

      .cls-2 {
        fill: none;
      }

      .cls-2, .cls-3, .cls-4, .cls-5, .cls-6, .cls-7, .cls-8 {
        stroke-width: 0px;
      }

      .cls-9 {
        opacity: .07;
      }

      .cls-10 {
        clip-path: url(#clippath-1);
      }

      .cls-11 {
        opacity: .46;
      }

      .cls-3 {
        fill: #3e3b44;
      }

      .cls-4 {
        fill: #232227;
      }

      .cls-5 {
        fill: #323038;
      }

      .cls-6 {
        fill: #ff7276;
      }

      .cls-7 {
        fill: #fff;
      }

      .cls-8 {
        fill: #000101;
      }
    </style>
    <clipPath id="clippath">
      <path class="cls-2" d="M146.49,17.44c-67.35,1.37-121.53,56.39-121.53,124.07s54.18,122.7,121.53,124.07V17.44Z"/>
    </clipPath>
    <clipPath id="clippath-1">
      <path class="cls-2" d="M274.55,137.03l33.11-33.11c5.89-5.89,5.89-15.53,0-21.42-5.89-5.89-15.53-5.89-21.41,0l-33.11,33.11-33.11-33.11c-5.89-5.89-15.53-5.89-21.42,0h0c-5.89,5.89-5.89,15.53,0,21.42l33.11,33.11-33.11,33.11c-5.89,5.89-5.89,15.53,0,21.42h0c5.89,5.89,15.53,5.89,21.42,0l33.11-33.11,33.11,33.11c5.89,5.89,15.53,5.89,21.41,0s5.89-15.53,0-21.42l-33.11-33.11Z"/>
    </clipPath>
  </defs>
  <g id="Capa_1" data-name="Capa 1">
    <g id="Icons">
      <g id="_20" data-name="20">
        <path class="cls-4" d="M41.45,210.26h0c-22.8,0-41.45-18.65-41.45-41.45v-54.59c0-22.8,18.65-41.45,41.45-41.45h0c22.8,0,41.45,18.65,41.45,41.45v54.59c0,22.8-18.65,41.45-41.45,41.45Z"/>
        <path class="cls-3" d="M146.49,17.44c-67.35,1.37-121.53,56.39-121.53,124.07s54.18,122.7,121.53,124.07V17.44Z"/>
        <g class="cls-1">
          <path class="cls-5" d="M146.49,17.44c-67.35,1.37-121.53,56.39-121.53,124.07s54.18,122.7,121.53,124.07V17.44Z"/>
          <path class="cls-3" d="M165.9-1.4C98.55-.04,44.37,54.99,44.37,122.67s54.18,122.7,121.53,124.07V-1.4Z"/>
        </g>
        <g>
          <g class="cls-11">
            <path class="cls-7" d="M118.26,50.54c-3.11,0-5.74-2.38-6.01-5.54-.27-3.32,2.2-6.23,5.52-6.5,2.31-.19,4.65-.29,7-.29,3.33,0,6.03,2.7,6.03,6.03s-2.7,6.03-6.03,6.03c-2.02,0-4.03.08-6.01.24-.17.01-.34.02-.5.02Z"/>
          </g>
          <g class="cls-11">
            <path class="cls-7" d="M46.67,128.38c-3.33,0-6.03-2.7-6.03-6.03,0-32.79,19.26-62.82,49.07-76.5,3.02-1.39,6.6-.06,8,2.97,1.39,3.03.06,6.61-2.97,8-25.53,11.72-42.04,37.45-42.04,65.54,0,3.33-2.7,6.03-6.03,6.03Z"/>
          </g>
        </g>
        <path class="cls-6" d="M274.55,137.03l33.11-33.11c5.89-5.89,5.89-15.53,0-21.42-5.89-5.89-15.53-5.89-21.41,0l-33.11,33.11-33.11-33.11c-5.89-5.89-15.53-5.89-21.42,0h0c-5.89,5.89-5.89,15.53,0,21.42l33.11,33.11-33.11,33.11c-5.89,5.89-5.89,15.53,0,21.42h0c5.89,5.89,15.53,5.89,21.42,0l33.11-33.11,33.11,33.11c5.89,5.89,15.53,5.89,21.41,0s5.89-15.53,0-21.42l-33.11-33.11Z"/>
        <path class="cls-4" d="M152.69,285.14h0c-8.05,0-14.64-6.59-14.64-14.64V14.64c0-8.05,6.59-14.64,14.64-14.64h0c8.05,0,14.64,6.59,14.64,14.64v255.86c0,8.05-6.59,14.64-14.64,14.64Z"/>
        <g class="cls-10">
          <g class="cls-9">
            <path class="cls-8" d="M189.27,195.97l129.3-123.2,36.11,102.62v34.87s-114.19,78.52-165.41-14.29Z"/>
          </g>
        </g>
      </g>
    </g>
  </g>
</svg>