<?xml version="1.0" encoding="UTF-8"?>
<svg id="_圖層_2" data-name="圖層 2" xmlns="http://www.w3.org/2000/svg" viewBox="0 0 40.45 48">
  <defs>
    <style>
      .cls-1 {
        fill: #172c70;
      }

      .cls-1, .cls-2, .cls-3 {
        fill-rule: evenodd;
        stroke-width: 0px;
      }

      .cls-2 {
        fill: #113984;
      }

      .cls-3 {
        fill: #009de2;
      }
    </style>
  </defs>
  <g id="layer">
    <g id="Paypal">
      <path id="lightp" class="cls-3" d="M17.29,11.3h13.54c7.27,0,10.01,3.68,9.58,9.09-.7,8.93-6.09,13.86-13.25,13.86h-3.61c-.98,0-1.64.65-1.91,2.41l-1.55,10.23c-.1.66-.45,1.06-.98,1.1h-8.49c-.8,0-1.08-.61-.87-1.93L14.93,13.24c.21-1.32.93-1.94,2.36-1.94Z"/>
      <path id="darkp" class="cls-2" d="M8.82,0h13.55c3.82,0,8.34.12,11.37,2.8,2.02,1.78,3.08,4.63,2.84,7.68-.83,10.35-7.02,16.15-15.32,16.15h-6.68c-1.14,0-1.89.75-2.21,2.8l-1.87,11.87c-.12.77-.45,1.22-1.06,1.28H1.09c-.93,0-1.26-.71-1.01-2.24L6.09,2.25c.24-1.53,1.08-2.25,2.73-2.25Z"/>
      <path id="shadowp" class="cls-1" d="M12.56,28.22l2.37-14.98c.21-1.32.93-1.94,2.36-1.94h13.54c2.24,0,4.05.35,5.47.99-1.36,9.21-7.32,14.33-15.12,14.33h-6.68c-.88,0-1.54.45-1.93,1.6Z"/>
    </g>
  </g>
</svg>