<?xml version="1.0" encoding="UTF-8"?>
<svg id="_圖層_2" data-name="圖層 2" xmlns="http://www.w3.org/2000/svg" xmlns:xlink="http://www.w3.org/1999/xlink" viewBox="0 0 177.07 310.21">
  <defs>
    <style>
      .cls-1 {
        clip-path: url(#clippath);
      }

      .cls-2 {
        fill: none;
      }

      .cls-2, .cls-3, .cls-4, .cls-5, .cls-6, .cls-7, .cls-8 {
        stroke-width: 0px;
      }

      .cls-9 {
        opacity: .23;
      }

      .cls-10 {
        opacity: .25;
      }

      .cls-11 {
        opacity: .36;
      }

      .cls-3 {
        fill-rule: evenodd;
      }

      .cls-3, .cls-6 {
        fill: #323038;
      }

      .cls-4 {
        fill: #f2f2f2;
      }

      .cls-5 {
        fill: #4d4e4e;
      }

      .cls-7 {
        fill: #fff;
      }

      .cls-8 {
        fill: #000101;
      }
    </style>
    <clipPath id="clippath">
      <path class="cls-2" d="M30.85,4h115.37c17.02,0,30.85,13.82,30.85,30.85v244.52c0,17.02-13.82,30.85-30.85,30.85H30.85c-17.03,0-30.85-13.82-30.85-30.85V34.84C0,17.82,13.82,4,30.85,4Z"/>
    </clipPath>
  </defs>
  <g id="Capa_1" data-name="Capa 1">
    <g id="Icons">
      <g id="phone">
        <path class="cls-5" d="M143.48,14.91h-21.6c-4.1,0-7.45-3.35-7.45-7.46h0c0-4.1,3.35-7.46,7.45-7.46h21.6c4.1,0,7.46,3.36,7.46,7.46h0c0,4.1-3.35,7.46-7.46,7.46Z"/>
        <path class="cls-6" d="M30.85,4h115.37c17.02,0,30.85,13.82,30.85,30.85v244.52c0,17.02-13.82,30.85-30.85,30.85H30.85c-17.03,0-30.85-13.82-30.85-30.85V34.84C0,17.82,13.82,4,30.85,4Z"/>
        <rect class="cls-4" x="11.43" y="49.73" width="152.44" height="204.98"/>
        <g class="cls-9">
          <path class="cls-8" d="M103.06,279.09c0,8.52-6.91,15.43-15.43,15.43s-15.43-6.91-15.43-15.43,6.91-15.43,15.43-15.43,15.43,6.91,15.43,15.43Z"/>
        </g>
        <path class="cls-8" d="M98.89,36.29h-22.51c-2.37,0-4.3-1.94-4.3-4.3h0c0-2.37,1.94-4.31,4.3-4.31h22.51c2.37,0,4.31,1.94,4.31,4.31h0c0,2.37-1.94,4.3-4.31,4.3Z"/>
        <path class="cls-8" d="M92.29,17.44c0,2.57-2.08,4.65-4.65,4.65s-4.65-2.08-4.65-4.65,2.08-4.65,4.65-4.65,4.65,2.08,4.65,4.65Z"/>
        <g class="cls-1">
          <g class="cls-10">
            <circle class="cls-7" cx="-3.41" cy="17.12" r="110.04"/>
          </g>
        </g>
        <g class="cls-11">
          <path class="cls-7" d="M11.01,39.33c-2.93-.76-4.7-3.76-3.93-6.69,3.83-14.74,18.94-23.61,33.68-19.78,2.93.76,4.7,3.76,3.93,6.69-.76,2.94-3.76,4.7-6.69,3.93-8.88-2.31-17.98,3.04-20.29,11.91-.76,2.94-3.76,4.69-6.7,3.93Z"/>
        </g>
        <g id="Apple_Logo" data-name="Apple Logo">
          <path class="cls-3" d="M97.09,137.16c2.21-2.31,3.7-5.52,3.29-8.72-3.18.11-7.03,1.83-9.31,4.13-2.05,2.04-3.83,5.31-3.36,8.44,3.55.24,7.17-1.55,9.37-3.86ZM103.86,159.24c-.07-7.17,5.8-10.61,6.06-10.78-3.3-4.86-8.44-5.53-10.27-5.6-4.37-.45-8.53,2.59-10.75,2.59s-5.64-2.54-9.26-2.47c-4.77.08-9.16,2.79-11.62,7.1-4.95,8.66-1.27,21.49,3.56,28.52,2.36,3.44,5.17,7.3,8.86,7.16,3.56-.14,4.91-2.32,9.2-2.32s5.5,2.32,9.27,2.25c3.83-.07,6.25-3.51,8.59-6.95,2.71-3.99,3.82-7.85,3.89-8.05-.08-.04-7.46-2.89-7.54-11.45Z"/>
        </g>
      </g>
    </g>
  </g>
</svg>