<?xml version="1.0" encoding="UTF-8"?>
<svg id="_圖層_2" data-name="圖層 2" xmlns="http://www.w3.org/2000/svg" viewBox="0 0 48 47.88">
  <defs>
    <style>
      .cls-1 {
        fill: #fff;
      }

      .cls-1, .cls-2 {
        stroke-width: 0px;
      }

      .cls-2 {
        fill: #00aef3;
      }
    </style>
  </defs>
  <g id="layer">
    <g id="Skype">
      <path id="bk" class="cls-2" d="M46.3,27.94c-.02.08-.03.17-.04.25l-.08-.48c.04.08.08.15.12.23.25-1.35.38-2.73.38-4.11,0-3.06-.6-6.03-1.78-8.82-1.14-2.7-2.77-5.12-4.86-7.2-2.08-2.08-4.51-3.72-7.2-4.86-2.79-1.18-5.76-1.78-8.82-1.78-1.44,0-2.89.14-4.29.4,0,0,0,0-.01,0,.08.04.16.08.24.12l-.48-.07c.08-.02.16-.03.24-.05-1.93-1.03-4.1-1.57-6.29-1.57-3.58,0-6.95,1.4-9.49,3.93C1.4,6.46,0,9.83,0,13.42c0,2.28.59,4.52,1.69,6.51.01-.08.02-.17.04-.25l.08.47c-.04-.07-.08-.15-.12-.23-.22,1.28-.34,2.6-.34,3.91,0,3.06.6,6.03,1.78,8.82,1.14,2.7,2.77,5.12,4.86,7.2,2.08,2.08,4.51,3.72,7.21,4.86,2.79,1.18,5.76,1.78,8.82,1.78,1.33,0,2.67-.12,3.97-.35-.08-.04-.15-.08-.23-.13l.48.08c-.08.02-.17.03-.25.04,2.01,1.14,4.28,1.74,6.6,1.74,3.58,0,6.95-1.39,9.49-3.93,2.54-2.53,3.93-5.9,3.93-9.49,0-2.29-.59-4.54-1.7-6.53Z"/>
      <path id="Slogo" class="cls-1" d="M24.1,37.71c-8.05,0-11.65-3.96-11.65-6.93,0-1.52,1.12-2.59,2.67-2.59,3.45,0,2.55,4.95,8.98,4.95,3.29,0,5.11-1.79,5.11-3.62,0-1.1-.54-2.32-2.71-2.85l-7.16-1.79c-5.77-1.45-6.81-4.56-6.81-7.5,0-6.09,5.73-8.37,11.11-8.37,4.96,0,10.8,2.74,10.8,6.39,0,1.56-1.35,2.47-2.9,2.47-2.94,0-2.4-4.07-8.32-4.07-2.94,0-4.57,1.33-4.57,3.24s2.32,2.51,4.34,2.97l5.3,1.18c5.81,1.29,7.28,4.68,7.28,7.88,0,4.95-3.8,8.64-11.46,8.64Z"/>
    </g>
  </g>
</svg>