<?xml version="1.0" encoding="UTF-8"?>
<svg id="_圖層_2" data-name="圖層 2" xmlns="http://www.w3.org/2000/svg" viewBox="0 0 48 39.01">
  <defs>
    <style>
      .cls-1 {
        fill: #69ace0;
        stroke-width: 0px;
      }
    </style>
  </defs>
  <g id="layer">
    <g id="Twiter">
      <path id="bird" class="cls-1" d="M48,4.62c-1.77.78-3.66,1.31-5.66,1.55,2.03-1.22,3.59-3.15,4.33-5.45-1.9,1.13-4.01,1.95-6.25,2.39-1.8-1.91-4.36-3.11-7.19-3.11-5.44,0-9.85,4.41-9.85,9.85,0,.77.09,1.52.25,2.24C15.45,11.68,8.2,7.76,3.34,1.8c-.85,1.45-1.33,3.15-1.33,4.95,0,3.42,1.74,6.43,4.38,8.2-1.61-.05-3.13-.49-4.46-1.23,0,.04,0,.08,0,.12,0,4.77,3.39,8.75,7.9,9.66-.83.22-1.7.35-2.59.35-.63,0-1.25-.06-1.85-.18,1.25,3.91,4.89,6.76,9.2,6.84-3.37,2.64-7.62,4.22-12.23,4.22-.79,0-1.58-.05-2.35-.14,4.36,2.79,9.53,4.42,15.1,4.42,18.11,0,28.02-15.01,28.02-28.02,0-.43,0-.85-.03-1.27,1.92-1.39,3.59-3.12,4.91-5.1Z"/>
    </g>
  </g>
</svg>