<?xml version="1.0" encoding="UTF-8"?>
<svg id="_圖層_2" data-name="圖層 2" xmlns="http://www.w3.org/2000/svg" viewBox="0 0 48 33.76">
  <defs>
    <style>
      .cls-1 {
        fill: #dc2217;
      }

      .cls-1, .cls-2 {
        stroke-width: 0px;
      }

      .cls-2 {
        fill: #fff;
      }
    </style>
  </defs>
  <g id="layer">
    <g id="Youtube">
      <path id="background" class="cls-1" d="M47.52,7.28s-.47-3.31-1.91-4.76c-1.83-1.91-3.87-1.92-4.81-2.03-6.72-.49-16.79-.49-16.79-.49h-.02S13.91,0,7.2.49c-.94.11-2.98.12-4.81,2.03C.95,3.98.48,7.28.48,7.28c0,0-.48,3.88-.48,7.77v3.64c0,3.88.48,7.77.48,7.77,0,0,.47,3.31,1.91,4.76,1.83,1.91,4.22,1.85,5.29,2.05,3.84.37,16.32.48,16.32.48,0,0,10.09-.02,16.8-.5.94-.11,2.98-.12,4.81-2.03,1.44-1.46,1.91-4.76,1.91-4.76,0,0,.48-3.88.48-7.77v-3.64c0-3.88-.48-7.77-.48-7.77Z"/>
      <path id="play" class="cls-2" d="M19.04,23.11v-13.49s12.97,6.77,12.97,6.77l-12.97,6.72Z"/>
    </g>
  </g>
</svg>